<svg viewBox="379.694 129.714 263.368 651.309" width="263.368" height="651.309">
  <path style="fill: rgb(216, 216, 216); stroke: rgb(0, 0, 0);" d="M 423.97 414.12 C 423.97 414.12 432.564 293.798 475.537 254.509 C 518.51 215.22 511.142 134.187 511.142 134.187 C 511.142 134.187 477.991 101.037 435.019 215.22 C 392.047 329.403 378.542 256.965 379.77 380.97 C 380.998 504.975 380.998 739.754 439.931 777.815 C 498.864 815.876 405.553 502.793 419.059 495.426 C 432.565 488.059 485.359 430.354 491.498 456.138 C 497.637 481.922 469.398 560.499 485.359 582.599 C 501.32 604.699 533.242 458.594 535.698 437.721 C 538.154 416.848 608.136 446.315 622.87 434.038 C 637.604 421.761 657.247 370.193 627.781 375.104 C 598.315 380.015 435.02 397.204 423.97 414.12"></path>
</svg>