<?xml version="1.0" standalone="no"?>
<!DOCTYPE svg PUBLIC "-//W3C//DTD SVG 20010904//EN"
 "http://www.w3.org/TR/2001/REC-SVG-20010904/DTD/svg10.dtd">
<svg version="1.0" xmlns="http://www.w3.org/2000/svg"
 width="1024.000000pt" height="1024.000000pt" viewBox="0 0 1024.000000 1024.000000"
 preserveAspectRatio="xMidYMid meet">

<g transform="translate(0.000000,1024.000000) scale(0.100000,-0.100000)"
fill="#216B39" stroke="none" >
<path d="M4855 10229 c-1277 -66 -2490 -611 -3381 -1520 -568 -581 -964 -1233
-1217 -2004 -395 -1205 -325 -2524 197 -3683 481 -1069 1324 -1950 2364 -2471
788 -394 1659 -582 2513 -541 603 29 1070 125 1624 335 1043 396 1939 1142
2532 2109 285 465 502 1000 623 1536 227 1001 146 2042 -233 3015 -365 937
-1053 1791 -1897 2357 -785 526 -1652 815 -2605 868 -202 11 -289 11 -520 -1z
m-1875 -1209 l0 -190 195 0 195 0 0 -195 0 -195 193 -2 192 -3 3 -192 2 -193
193 -2 192 -3 3 -192 2 -193 193 -2 192 -3 3 -192 2 -193 193 -2 192 -3 3
-192 2 -193 193 -2 192 -3 3 -192 2 -193 193 -2 192 -3 3 -192 2 -193 193 -2
192 -3 3 -192 2 -193 193 -2 192 -3 3 -192 2 -193 193 -2 192 -3 3 -192 2
-193 193 -2 192 -3 0 -195 0 -195 -777 -3 -778 -2 0 -385 0 -385 193 -2 192
-3 3 -387 2 -388 193 -2 192 -3 3 -387 2 -388 193 -2 192 -3 0 -390 0 -390
-192 -3 -193 -2 0 -190 0 -190 -395 0 -395 0 0 190 0 190 -192 2 -193 3 -3
387 -2 388 -193 2 -192 3 -3 387 -2 388 -193 2 -192 3 -3 388 -2 387 -385 0
-385 0 -2 -192 -3 -193 -192 -3 -193 -2 0 -195 0 -195 -195 0 -195 0 0 -195 0
-195 -195 0 -195 0 0 3315 0 3315 195 0 195 0 0 -190z"/>
<path d="M2980 5900 l0 -2540 195 0 195 0 0 195 0 195 195 0 195 0 0 195 0
195 193 2 192 3 3 193 2 192 195 0 195 0 0 -390 0 -390 195 0 195 0 0 -390 0
-390 195 0 195 0 0 -390 0 -390 195 0 195 0 0 -390 0 -390 388 2 387 3 0 390
0 390 -192 3 -193 2 -2 388 -3 387 -192 3 -193 2 0 390 0 390 -195 0 -195 0 0
580 0 580 583 2 582 3 0 195 0 195 -192 3 -193 2 -2 193 -3 192 -192 3 -193 2
0 195 0 195 -195 0 -195 0 0 195 0 195 -195 0 -195 0 0 195 0 195 -195 0 -195
0 0 195 0 195 -195 0 -195 0 0 195 0 195 -195 0 -195 0 0 195 0 195 -195 0
-195 0 0 195 0 195 -195 0 -195 0 0 -2540z"/>
</g>
</svg>
